<?xml version="1.0" encoding="utf-8"?>
<!-- Generator: Adobe Illustrator 27.5.0, SVG Export Plug-In . SVG Version: 6.00 Build 0)  -->
<svg version="1.1" xmlns="http://www.w3.org/2000/svg" xmlns:xlink="http://www.w3.org/1999/xlink" x="0px" y="0px"
	 viewBox="0 0 750 500" style="enable-background:new 0 0 750 500;" xml:space="preserve">
<g id="BACKGROUND_1_">
	<rect style="fill:#F9F9F9;" width="750" height="500"/>
</g>
<g id="OBJECTS">
	<g>
		<g>
			
				<linearGradient id="SVGID_1_" gradientUnits="userSpaceOnUse" x1="-239.5556" y1="203.6024" x2="-191.2632" y2="105.2454" gradientTransform="matrix(-1 0 0 1 -1.9673 0)">
				<stop  offset="0" style="stop-color:#423A64"/>
				<stop  offset="1" style="stop-color:#605987"/>
			</linearGradient>
			<path style="fill:url(#SVGID_1_);" d="M242.274,203.274c-10.338-31.954-14.178-77.736-28.06-112.884
				c-13.882-35.149-50.958-59.369-68.75-36.035c-17.792,23.334,34.192,51.985,40.69,92.45c6.498,40.465,22.743,74.728,56.12,87.428
				V203.274z"/>
			
				<path style="fill:none;stroke:#E3E2E8;stroke-width:0.8399;stroke-linecap:round;stroke-linejoin:round;stroke-miterlimit:10;" d="
				M182.61,88.913c22.152,27.764,22.152,94.747,59.664,130.371"/>
		</g>
		<g>
			
				<linearGradient id="SVGID_00000164471551419485999020000005844955583361011134_" gradientUnits="userSpaceOnUse" x1="-244.6243" y1="215.5642" x2="-146.2673" y2="138.4735" gradientTransform="matrix(-1 0 0 1 -1.9673 0)">
				<stop  offset="0" style="stop-color:#00969E"/>
				<stop  offset="1" style="stop-color:#0EC1BC"/>
			</linearGradient>
			<path style="fill:url(#SVGID_00000164471551419485999020000005844955583361011134_);" d="M242.274,211.785
				c-18.018-16.245-43.124-86.441-93.336-100.521c-50.212-14.081-73.841,9.186-51.394,28.419s103.674,46.406,141.776,103.116
				L242.274,211.785z"/>
			
				<path style="fill:none;stroke:#E3E2E8;stroke-width:0.8399;stroke-linecap:round;stroke-linejoin:round;stroke-miterlimit:10;" d="
				M124.423,131.445c45.782,3.84,77.079,63.683,116.368,95.908"/>
		</g>
		<g>
			
				<linearGradient id="SVGID_00000071529375451383641900000006322131333201107852_" gradientUnits="userSpaceOnUse" x1="-242.585" y1="238.5125" x2="-148.6585" y2="197.752" gradientTransform="matrix(-1 0 0 1 -1.9673 0)">
				<stop  offset="0" style="stop-color:#605575"/>
				<stop  offset="1" style="stop-color:#7E719E"/>
			</linearGradient>
			<path style="fill:url(#SVGID_00000071529375451383641900000006322131333201107852_);" d="M238.508,230.024
				c-19.051-8.418-43.695-48.919-79.777-56.248S90.53,179.757,96.732,201.9c6.203,22.143,47.406-6.655,73.325,23.029
				c25.918,29.684,70.734,34.649,70.734,34.649L238.508,230.024z"/>
			
				<path style="fill:none;stroke:#E3E2E8;stroke-width:0.8399;stroke-linecap:round;stroke-linejoin:round;stroke-miterlimit:10;" d="
				M139.204,192.586c39.382,1.329,62.111,46.446,100.645,54.79"/>
		</g>
	</g>
	<g>
		<path style="fill:#F05757;" d="M635.351,436.767c0.768-58.072,83.944-169.409,8.732-246.699
			c-58.413-60.026-154.744-0.014-199.161-73.002C400.505,44.078,242.374,0.404,237.018,158.467
			c-5.356,158.063,127.16,278.3,127.16,278.3H635.351z"/>
		<g>
			<path style="fill:#FFE582;" d="M94.796,436.767c-9.21-39.141,6.907-62.165,53.467-84.933
				c46.56-22.768,61.653-82.119,40.036-122.54c-21.617-40.42,0.128-111.795,66.77-92.864
				c66.642,18.931,60.502,75.965,118.318,86.589c57.816,10.624,110.516,21.88,129.575,52.323
				c19.059,30.443,108.853,41.188,69.968,161.425H94.796z"/>
			<path style="fill:#FFE582;" d="M100.019,338.951c9.973,14.538,55.113-4.498,65.277-45.381
				c10.164-40.883-17.122-77.35-42.238-64.374c-26.231,13.552-6.375,40.835-6.099,60.171
				C117.411,320.946,87.144,320.183,100.019,338.951z"/>
			<path style="fill:#FFE582;" d="M610.796,409.054c18.884,4.572,27.551-62.421,10.666-62.165
				c-16.884,0.256-8.954,25.104-13.047,34.297C604.322,390.379,597.06,405.728,610.796,409.054z"/>
			<path style="fill:#FFE582;" d="M528.564,265.925c41.057,50.173,119.834,23.461,123.672-6.329
				c3.837-29.79-62.165-19.875-75.979-63.206C562.442,153.058,467.057,190.76,528.564,265.925z"/>
		</g>
		<path style="fill:#EEC9C3;" d="M135.283,436.767c-11.067-45.025,6.176-81.863,68.162-83.91s62.327-30.187,102.577-23.792
			c40.249,6.396,50.994-27.885,84.251-20.722c33.257,7.163,17.396,35.722,47.583,51.118c30.187,15.396,68.841,34.839,44.142,77.305
			H135.283z"/>
		<path style="fill:none;stroke:#423A64;stroke-width:0.97;stroke-linecap:round;stroke-linejoin:round;stroke-miterlimit:10;" d="
			M108.645,434.024c-12.146-38.144,15.733-83.346,55.258-126.671c39.525-43.324-7.685-117.594,60.441-140.281
			c68.126-22.687,96.506,34.024,174.788,19.442c78.282-14.582,125.325-74.861,228.578-46.833
			c127.4,34.583,18.164,297.084,18.164,297.084"/>
		
			<ellipse transform="matrix(0.3805 -0.9248 0.9248 0.3805 261.8371 575.6302)" style="fill:none;stroke:#423A64;stroke-width:0.97;stroke-linecap:round;stroke-linejoin:round;stroke-miterlimit:10;" cx="560.587" cy="92.372" rx="9.21" ry="9.21"/>
		
			<ellipse transform="matrix(0.4396 -0.8982 0.8982 0.4396 -23.7886 557.9034)" style="fill:none;stroke:#423A64;stroke-width:0.97;stroke-linecap:round;stroke-linejoin:round;stroke-miterlimit:10;" cx="435.219" cy="298.016" rx="9.21" ry="9.21"/>
		
			<ellipse transform="matrix(0.7071 -0.7071 0.7071 0.7071 -184.6512 150.2453)" style="fill:none;stroke:#423A64;stroke-width:0.97;stroke-linecap:round;stroke-linejoin:round;stroke-miterlimit:10;" cx="89.037" cy="298.016" rx="9.21" ry="9.21"/>
		
			<rect x="680.922" y="392.01" style="fill:none;stroke:#423A64;stroke-width:0.97;stroke-linecap:round;stroke-linejoin:round;stroke-miterlimit:10;" width="12.689" height="12.689"/>
		
			<rect x="234.89" y="67.147" style="fill:none;stroke:#423A64;stroke-width:0.97;stroke-linecap:round;stroke-linejoin:round;stroke-miterlimit:10;" width="12.689" height="12.689"/>
		<g>
			
				<line style="fill:none;stroke:#423A64;stroke-width:0.97;stroke-linecap:round;stroke-linejoin:round;stroke-miterlimit:10;" x1="288.633" y1="110.721" x2="288.633" y2="123.41"/>
			
				<line style="fill:none;stroke:#423A64;stroke-width:0.97;stroke-linecap:round;stroke-linejoin:round;stroke-miterlimit:10;" x1="294.978" y1="117.066" x2="282.289" y2="117.066"/>
		</g>
		<g>
			
				<line style="fill:none;stroke:#423A64;stroke-width:0.97;stroke-linecap:round;stroke-linejoin:round;stroke-miterlimit:10;" x1="597.997" y1="319.498" x2="607.606" y2="327.786"/>
			
				<line style="fill:none;stroke:#423A64;stroke-width:0.97;stroke-linecap:round;stroke-linejoin:round;stroke-miterlimit:10;" x1="606.945" y1="318.837" x2="598.658" y2="328.447"/>
		</g>
	</g>
	<g>
		<rect x="144.682" y="284.296" style="fill:#F9F9F9;" width="219.497" height="152.471"/>
		
			<rect x="189.835" y="262.423" transform="matrix(6.123234e-17 -1 1 6.123234e-17 -106.1012 614.9612)" style="fill:#D4EBDE;" width="129.191" height="196.216"/>
		<path style="fill:#60BEC8;" d="M259.505,377.672c0,0,57.09-29.931,93.033-13.047v60.502h-85.061L259.505,377.672z"/>
		<path style="fill:#1F6B7D;" d="M156.322,379.974c0,0,47.711-25.582,107.958-25.071c60.246,0.512,88.259,45.976,88.259,45.976
			v24.248H156.322V379.974z"/>
		<circle style="fill:#FFCC05;" cx="306.022" cy="329.065" r="11.768"/>
	</g>
	<g>
		<path style="fill:#F2A887;" d="M269.268,292.994c-4.57,1.006-8.875,1.343-12.828,1.257l0,0l-1.37,13.457l4.312,13.223l0,0
			c25.454-11.394,50.578-33.544,60.412-36.635h15.094C322.863,267.411,293.686,287.616,269.268,292.994z"/>
		<path style="fill:#423A64;" d="M256.44,294.25c-14.637-0.32-24.394-6.501-24.394-6.501v39.908
			c8.668,0.171,18.024-2.559,27.336-6.727C260.03,310.85,257.985,300.42,256.44,294.25z"/>
		
			<linearGradient id="SVGID_00000092456485855430657900000007086825873902457987_" gradientUnits="userSpaceOnUse" x1="230.1855" y1="307.9499" x2="264.146" y2="305.2638">
			<stop  offset="0" style="stop-color:#000000"/>
			<stop  offset="0.628" style="stop-color:#000000;stop-opacity:0"/>
		</linearGradient>
		<path style="opacity:0.3;fill:url(#SVGID_00000092456485855430657900000007086825873902457987_);" d="M250.145,293.742
			c-11.071-1.544-18.099-5.992-18.099-5.992v39.908c6.647,0.131,13.699-1.448,20.826-4.069
			C253.569,310.634,251.583,299.7,250.145,293.742z"/>
	</g>
	<g>
		<path style="fill:#F45125;" d="M232.725,281.586l-2.509,0.711c0,0,1.214-2.438-0.872-3.013c-2.086-0.576-3.789-1.823-3.31-4.053
			c0,0-4.941-1.295-4.173-5.156c0,0-7.243-13.351,4.797-16.953c0,0-0.094-8.062,7.292-10.269c7.386-2.206,8.729,1.391,12.854,0.336
			c4.125-1.055,11.656-5.18,17.124-0.672c5.468,4.509,2.766,14.077-3.741,16.581L232.725,281.586z"/>
		<g>
			<path style="fill:#F2A887;" d="M227.569,287.75l6.396-13.175c0,0-8.218-2.079-6.396-8.89c1.823-6.811,8.154-7.387,10.745-3.933
				c2.59,3.454,2.9,8.442,5.288,7.867c2.387-0.576,2.579-8.25,2.579-8.25s6.588,2.206,14.006-2.27l2.352,11.11
				c0,0-1.105,1.282-3.263,0.994c0,0,0.432,14.726-16.069,9.306l-5.42,12.471L227.569,287.75z"/>
			
				<linearGradient id="SVGID_00000098914552516727006920000012395640825410001816_" gradientUnits="userSpaceOnUse" x1="243.0921" y1="280.3171" x2="236.8884" y2="282.8114">
				<stop  offset="0" style="stop-color:#000000"/>
				<stop  offset="0.628" style="stop-color:#000000;stop-opacity:0"/>
			</linearGradient>
			<path style="opacity:0.75;fill:url(#SVGID_00000098914552516727006920000012395640825410001816_);" d="M237.476,277.695
				c0,0-0.276,5.643,3.284,8.439l2.446-5.628C239.273,279.259,237.476,277.695,237.476,277.695z"/>
			<path style="fill:#423A64;" d="M255.878,264.858c0.215,0.508,0.107,1.04-0.242,1.188c-0.349,0.148-0.807-0.144-1.023-0.652
				c-0.215-0.508-0.107-1.04,0.243-1.188C255.205,264.058,255.663,264.35,255.878,264.858z"/>
			<path style="fill:#EF8C89;" d="M255.246,274.846c0-2.676-2.169-4.845-4.845-4.845c-2.676,0-4.845,2.169-4.845,4.845
				s2.169,4.845,4.845,4.845C253.077,279.691,255.246,277.522,255.246,274.846z"/>
			<g>
				
					<path style="fill:none;stroke:#423A64;stroke-width:0.485;stroke-linecap:round;stroke-linejoin:round;stroke-miterlimit:10;" d="
					M231.166,265.925c0,0,3.406-1.775,5.852,0"/>
				
					<path style="fill:none;stroke:#423A64;stroke-width:0.485;stroke-linecap:round;stroke-linejoin:round;stroke-miterlimit:10;" d="
					M234.668,269.57c0,0-1.103-1.944-0.576-4.425"/>
			</g>
		</g>
	</g>
	<g>
		<path style="fill:#70CACD;" d="M264.279,388.864c22.257,5.948,31.658,21.681,28.205,40.292
			c-3.454,18.611-75.404,18.419-104.184,8.442l4.221-20.146L264.279,388.864z"/>
		<path style="fill:#423A64;" d="M191.257,423.486l-8.137-1.621l-22.832,14.774c0,0,17.908,2.43,28.013,0.959L191.257,423.486z"/>
		<path style="fill:#70CACD;" d="M169.744,397.481c9.648,27.1,37.155,41.225,90.698,30.332l3.837-38.949l-46.24-9.785l-23.216-8.826
			L169.744,397.481z"/>
		<g>
			<path style="fill:none;stroke:#E3E2E8;stroke-width:0.97;stroke-linecap:round;stroke-linejoin:round;stroke-miterlimit:10;" d="
				M175.772,401.719c0,0,25.794-3.932,48.572-19.418"/>
			<path style="fill:none;stroke:#E3E2E8;stroke-width:0.97;stroke-linecap:round;stroke-linejoin:round;stroke-miterlimit:10;" d="
				M217.012,382.301c0,0,11.512,14.046,0,21.337"/>
		</g>
	</g>
	<path style="fill:#423A64;" d="M233.772,287.941c-18.661-13.46-61.08,24.242-66.77,64.851c-2.365,16.877-1.716,32.166,2.742,44.688
		c21.533-5.583,48.295-18.402,48.295-18.402S257.18,304.826,233.772,287.941z"/>
	<g>
		<path style="fill:#F2A887;" d="M235.243,362.45c3.24-10.91,5.478-22.163,6.575-32.563l0,0l-17.319-7.985l-18.091,4.461l0,0
			c-2.804,18.996-0.584,44.159,9.52,54.634c10.457,10.841,36.564,5.596,48.351,8.09c11.787,2.494,19.844,10.457,19.844,10.457
			C280.176,378.439,235.243,362.45,235.243,362.45z"/>
		<path style="fill:#423A64;" d="M241.819,329.887c2.324-22.035-0.497-40.224-9.92-43.085c-13.866-4.21-21.918,18.408-25.18,37.595
			c-0.11,0.647-0.213,1.304-0.311,1.967C213.339,328.691,225.504,331.428,241.819,329.887z"/>
	</g>
	<g>
		<g>
			<path style="fill:#D63232;" d="M544.899,215.735H506.67c-11.083,0-19.957,9.189-19.572,20.265l2.429,69.785h72.514L564.47,236
				C564.856,224.924,555.981,215.735,544.899,215.735z"/>
			<path style="fill:#1F6B7D;" d="M569.78,438.221c0.028,0,0.058-0.001,0.087-0.003c0.801-0.047,1.413-0.736,1.366-1.538
				l-7.739-130.982c-0.047-0.801-0.718-1.425-1.538-1.366c-0.801,0.047-1.413,0.736-1.366,1.538l7.739,130.982
				C568.374,437.626,569.015,438.221,569.78,438.221z"/>
			<path style="fill:#1F6B7D;" d="M481.789,438.221c-0.028,0-0.058-0.001-0.087-0.003c-0.801-0.047-1.413-0.736-1.366-1.538
				l7.739-130.982c0.047-0.801,0.718-1.425,1.538-1.366c0.801,0.047,1.413,0.736,1.366,1.538l-7.739,130.982
				C483.195,437.626,482.553,438.221,481.789,438.221z"/>
			<path style="fill:#D63232;" d="M480.637,308.343h90.294c1.413,0,2.558-1.145,2.558-2.558l0,0c0-1.413-1.145-2.558-2.558-2.558
				h-90.294c-1.413,0-2.558,1.145-2.558,2.558l0,0C478.079,307.198,479.224,308.343,480.637,308.343z"/>
		</g>
		<g>
			<g>
				<g>
					<path style="fill:#70CACD;" d="M533.198,264.342l40.292,21.105l-2.686,17.268c0,0-30.565,6.843-55.892,0.512
						c0,0-23.599,50.081,9.735,101.473l0,0l-0.167,5.845l-9.597,2.964c-9.118-8.239-29.498-30.148-36.174-66.28
						c-8.698-47.072,2.878-77.515,2.878-77.515L533.198,264.342z"/>
					<path style="fill:#423A64;" d="M524.646,404.699c2.908,4.483,6.248,8.959,10.086,13.392l-18.163,18.675l2.814-19.507
						c0,0-1.741-1.257-4.501-3.751L524.646,404.699z"/>
				</g>
				<g>
					<path style="fill:#70CACD;" d="M533.965,282.953l-0.767-18.611c0,0,64.34,5.244,61.142,30.187
						c-2.59,20.203-58.128,33.02-79.143,37.162l-6.908-3.836l1.233-8.978l56.677-32.854L533.965,282.953z"/>
					<path style="fill:#423A64;" d="M515.196,331.691c-4.93,0.972-7.965,1.467-7.965,1.467s-3.582,16.756-3.965,15.413
						c-0.384-1.343-6.907-22.065-6.907-22.065l13.163-7.63L515.196,331.691z"/>
				</g>
			</g>
			<g>
				<path style="fill:#D26F84;" d="M495.413,183.808L495.413,183.808l10.979,7.92l15.198-4.239c2.172,0.847,4.456,1.891,6.746,3.176
					c10.489,5.884,4.861,73.677,4.861,73.677s-25.838,10.233-51.612,5.372c-1.686-0.318-1.919-47.583-3.262-65.619
					C477.214,189.202,479.391,184.387,495.413,183.808z"/>
				<path style="fill:#F2A887;" d="M507.487,183.949c0,0,6.33,0.508,14.103,3.54c-1.384,3.587-5.394,9.996-16.214,8.74
					c-9.632-1.118-10.527-7.829-9.964-12.42C498.792,183.686,502.774,183.749,507.487,183.949z"/>
				
					<linearGradient id="SVGID_00000115497841496332779920000008648655208770727087_" gradientUnits="userSpaceOnUse" x1="677.9233" y1="236.3673" x2="703.1218" y2="230.4834" gradientTransform="matrix(-1 0 0 1 1212.0168 0)">
					<stop  offset="0" style="stop-color:#000000"/>
					<stop  offset="0.628" style="stop-color:#000000;stop-opacity:0"/>
				</linearGradient>
				<path style="opacity:0.3;fill:url(#SVGID_00000115497841496332779920000008648655208770727087_);" d="M524.277,208.574
					c0,0-7.069,23.022-7.197,40.29c-0.128,17.268,17.47,8.954,17.625,6.523C534.86,252.958,524.277,208.574,524.277,208.574z"/>
				
					<linearGradient id="SVGID_00000158714583024981852940000008319804701498593723_" gradientUnits="userSpaceOnUse" x1="704.0817" y1="252.3329" x2="713.5472" y2="279.834" gradientTransform="matrix(-1 0 0 1 1212.0168 0)">
					<stop  offset="0" style="stop-color:#000000"/>
					<stop  offset="0.628" style="stop-color:#000000;stop-opacity:0"/>
				</linearGradient>
				<path style="opacity:0.3;fill:url(#SVGID_00000158714583024981852940000008319804701498593723_);" d="M533.718,256.933
					c-0.285,4.567-0.521,7.409-0.521,7.409s-25.838,10.233-51.612,5.372c-0.749-0.141-1.211-9.552-1.611-21.547L533.718,256.933z"/>
			</g>
			<g>
				
					<rect x="275.242" y="79.312" transform="matrix(-0.9898 -0.1422 0.1422 -0.9898 743.9514 364.2551)" style="fill:#F9F9F9;" width="219.497" height="152.471"/>
				
					<rect x="320.395" y="57.439" transform="matrix(0.1422 -0.9898 0.9898 0.1422 176.2828 514.5096)" style="fill:#D4EBDE;" width="129.191" height="196.217"/>
				<path style="fill:#60BEC8;" d="M392.791,183.746c0,0,23.758-55.507,51.637-51.401c27.879,4.105,38.842,29.01,38.842,29.01
					l-6.783,47.219L392.791,183.746z"/>
				<path style="fill:#60BEC8;" d="M377.53,171.792c0,0-52.254-37.745-90.233-26.143l-8.602,59.887l84.197,12.094L377.53,171.792z"
					/>
				<path style="fill:#1F6B7D;" d="M479.337,188.742c0,0-34.64-23.395-94.347-31.455c-59.707-8.06-102.848,24.248-102.848,24.248
					l-3.448,24.001l194.223,27.899L479.337,188.742z"/>
				
					<ellipse transform="matrix(0.9932 -0.1166 0.1166 0.9932 -11.3394 40.2456)" style="fill:#FFCC05;" cx="338.397" cy="117.066" rx="11.768" ry="11.768"/>
			</g>
			<g>
				<path style="fill:#F2A887;" d="M469.178,245.219c0,0-5.884-4.733-4.349-5.5c1.535-0.767,8.506,2.942,8.506,2.942l17.144,0.9l0,0
					l3.066,7.222l-4.352,5.854c-7.958-3.007-12.916-5.598-12.916-5.598s-10.808-1.151-15.349-4.157
					c-4.541-3.006-6.204-4.349-5.372-5.692C456.386,239.847,461.695,244.579,469.178,245.219z"/>
				<path style="fill:#D26F84;" d="M490.478,243.561l34.001,1.786c0,0-1.351-30.907,0.372-43.266L529,191.149
					c10.481,7.334,19.163,25.353,19.035,41.342c-0.128,15.989,2.389,35.328-23.556,32.758c-13.705-1.358-26.377-5.245-35.286-8.612
					C489.276,251.616,489.861,247.05,490.478,243.561z"/>
			</g>
			<g>
				<path style="fill:#423A64;" d="M515.642,176.562c0,0,8.41,3.933,11.928-2.27c0,0,3.395,0.317,10.041-3.006
					c0.384-0.192,5.756,0.064,7.419-4.989c1.663-5.053-1.919-7.831-1.919-7.831s6.14-5.089,3.39-10.461
					c-2.75-5.372-6.715-2.75-9.529-6.587c-2.814-3.837-0.64-9.274-6.012-13.239c-5.372-3.965-8.698-1.279-8.698-1.279
					s-0.448-9.274-8.57-9.018c-8.122,0.256-9.561,6.971-9.561,6.971s-3.933-5.436-10.073-1.791c-6.14,3.646-4.093,9.53-4.093,9.53
					s-6.939,0.416-6.172,6.699c0.768,6.284,4.077,6.921,2.878,11.159c-1.199,4.238-0.384,6.157,1.583,8.315
					c0,0-2.063,4.173,0.528,6.523c2.59,2.35,6.859,0.192,6.859,0.192L515.642,176.562z"/>
				<path style="fill:#F2A887;" d="M500.836,187.467c0,0,6.012,8.698,13.559,2.302l3.326-19.443c0,0,7.899,4.989,11.736-3.55
					c3.837-8.538-4.125-12.28-7.387-9.401c-3.262,2.878-7.771-0.48-7.771-3.742c0,0-4.125-0.384-4.701-4.221
					c0,0-4.173,1.871-5.084-0.432c0,0-4.461,1.199-5.228-2.063c0,0-1.535,1.535-3.693,0c0,0-11.256,19.315,8.25,25.966
					L500.836,187.467z"/>
				
					<linearGradient id="SVGID_00000103946160163924059780000017836979285105129089_" gradientUnits="userSpaceOnUse" x1="707.4377" y1="172.4703" x2="704.0321" y2="178.6581" gradientTransform="matrix(-1 0 0 1 1212.0168 0)">
					<stop  offset="0" style="stop-color:#000000"/>
					<stop  offset="0.628" style="stop-color:#000000;stop-opacity:0"/>
				</linearGradient>
				<path style="opacity:0.75;fill:url(#SVGID_00000103946160163924059780000017836979285105129089_);" d="M503.842,172.885
					c3.965,1.535,6.971,1.471,6.971,1.471s-3.319,3.463-8.124,4.121L503.842,172.885z"/>
				
					<path style="fill:none;stroke:#423A64;stroke-width:0.485;stroke-linecap:round;stroke-linejoin:round;stroke-miterlimit:10;" d="
					M504.609,154.465l-4.317-0.48c0,0-0.512,2.814,1.759,4.189"/>
				<g>
					
						<path style="fill:none;stroke:#423A64;stroke-width:0.485;stroke-linecap:round;stroke-linejoin:round;stroke-miterlimit:10;" d="
						M513.403,159.646c0,0-0.416-3.326-3.901-2.079"/>
					
						<path style="fill:none;stroke:#423A64;stroke-width:0.485;stroke-linecap:round;stroke-linejoin:round;stroke-miterlimit:10;" d="
						M499.043,152.355c0,0-0.672-2.526-2.974-1.759"/>
				</g>
				<g>
					<path style="fill:#EF8C89;" d="M504.129,167.073c0-2.76,2.237-4.997,4.997-4.997c2.759,0,4.996,2.237,4.996,4.997
						s-2.237,4.997-4.996,4.997C506.366,172.069,504.129,169.832,504.129,167.073z"/>
					<path style="fill:#EF8C89;" d="M496.069,163.044c0,1.38-0.486,2.645-1.296,3.636c-1.991-2.828-2.538-6.017-2.382-8.999
						C494.542,158.515,496.069,160.598,496.069,163.044z"/>
				</g>
				<g>
					
						<path style="fill:none;stroke:#423A64;stroke-width:0.485;stroke-linecap:round;stroke-linejoin:round;stroke-miterlimit:10;" d="
						M526.866,163.323c0,0-1.247-3.502-5.372-1.247"/>
					
						<path style="fill:none;stroke:#423A64;stroke-width:0.485;stroke-linecap:round;stroke-linejoin:round;stroke-miterlimit:10;" d="
						M523.22,165.482c0,0,1.74-1.971,1.254-4.127"/>
				</g>
			</g>
			<g>
				<path style="fill:#D26F84;" d="M417.945,243.182l-1.531-3.015l2.529-2.724l31.207,4.483
					C450.15,241.926,433.998,245.335,417.945,243.182L417.945,243.182z"/>
				<path style="fill:#F2A887;" d="M390.064,233.436l5.192,0.604c0,0-3.977-7.561-2.442-8.008c1.535-0.448,4.605,6.076,4.605,6.076
					s-1.578-8.782-0.32-9.082c1.258-0.3,4.221,9.146,4.221,9.146s-0.825-8.294,0.639-8.506s3.582,9.771,3.582,9.771
					s0.448-6.109,1.727-6.053c1.279,0.056,2.102,8.685,2.102,8.685l9.573,1.375c-0.387,1.59-0.741,3.502-0.999,5.739
					c-0.468-0.063-0.935-0.129-1.403-0.201C400.041,240.422,390.064,233.436,390.064,233.436z"/>
			</g>
		</g>
	</g>
</g>
<g id="DESIGNED_BY_FREEPIK">
	<g>
		<g id="XMLID_319_">
			<g id="XMLID_338_">
				<path id="XMLID_346_" style="fill:#1C262D;" d="M385.104,465.465c-0.432,0.443-0.803,0.931-1.108,1.453l-0.465-0.241
					c-0.067-0.298-0.349-0.503-0.659-0.466c-0.331,0.039-0.568,0.339-0.529,0.67c0.039,0.331,0.339,0.568,0.67,0.529
					c0.065-0.008,0.127-0.026,0.183-0.052l0.452,0.234c-0.251,0.554-0.433,1.139-0.539,1.744l0.747,0.132
					c0.23-1.306,0.85-2.507,1.792-3.473L385.104,465.465z"/>
				<path id="XMLID_345_" style="fill:#1C262D;" d="M390.592,463.163c-0.171,0-0.341,0.006-0.51,0.017l-0.074-0.626
					c0.188-0.149,0.296-0.389,0.266-0.645c-0.046-0.393-0.402-0.674-0.795-0.628c-0.393,0.046-0.674,0.402-0.628,0.795
					c0.03,0.254,0.189,0.461,0.405,0.564l0.073,0.624c-0.714,0.116-1.403,0.332-2.06,0.646l0.327,0.684
					c0.934-0.447,1.942-0.673,2.995-0.673c0.496,0,0.993,0.053,1.475,0.158l0.161-0.741
					C391.692,463.222,391.142,463.163,390.592,463.163z"/>
				<path id="XMLID_344_" style="fill:#1C262D;" d="M397.194,465.711c0.331-0.04,0.566-0.341,0.526-0.672
					c-0.04-0.331-0.341-0.566-0.672-0.526c-0.309,0.038-0.535,0.304-0.53,0.609l-0.416,0.363c-0.418-0.43-0.89-0.813-1.408-1.139
					l-0.404,0.641c1.134,0.715,2.021,1.726,2.563,2.925l0.691-0.313c-0.251-0.554-0.568-1.072-0.942-1.545l0.402-0.351
					C397.065,465.716,397.129,465.719,397.194,465.711z"/>
				<path id="XMLID_343_" style="fill:#1C262D;" d="M390.044,473.372c-0.386,0.023-0.775,0.035-1.157,0.035
					c-0.88,0-1.733-0.061-2.478-0.179c-0.39-0.062-0.846-0.155-1.27-0.292c1.046,1.861,3.069,3.125,5.388,3.125
					c2.855,0,5.262-1.916,5.95-4.504c-0.682,0.449-1.505,0.825-2.459,1.123C392.839,473.047,391.464,473.286,390.044,473.372z"/>
				<path id="XMLID_339_" style="fill:#1C262D;" d="M390.592,464.68c-3.352,0-6.08,2.666-6.08,5.943
					c0,0.426,0.046,0.849,0.137,1.261c0.673,0.483,2.706,0.89,5.348,0.731c2.879-0.173,5.297-0.957,6.672-2.159
					c-0.005-0.195-0.021-0.39-0.045-0.582C396.244,466.913,393.65,464.68,390.592,464.68z M388.432,471.194
					c-1.02,0-1.85-0.83-1.85-1.85c0-1.02,0.83-1.85,1.85-1.85c1.02,0,1.85,0.83,1.85,1.85
					C390.282,470.365,389.452,471.194,388.432,471.194z M393.17,470.286c-0.75,0-1.36-0.61-1.36-1.36s0.61-1.361,1.36-1.361
					c0.75,0,1.361,0.61,1.361,1.361S393.92,470.286,393.17,470.286z"/>
			</g>
			<path id="XMLID_336_" style="fill:#1C262D;" d="M406.595,466.547c-0.295-0.116-0.805-0.309-1.382-0.237
				c-0.551,0.069-0.844,0.341-0.844,1.007v0.866h2.228v1.717h-2.228v5.455h-1.932v-5.455h-1.34v-1.717h1.34v-0.888
				c0-1.68,0.896-2.783,2.568-2.783c0.643,0,1.157,0.122,1.59,0.308L406.595,466.547z"/>
			<path id="XMLID_334_" style="fill:#1C262D;" d="M411.298,469.879c-0.177-0.03-0.358-0.046-0.526-0.046
				c-0.896,0-1.51,0.548-1.51,1.614v3.908h-1.932v-7.172h1.873v0.785c0.451-0.673,1.14-0.977,2.021-0.977
				c0.414,0,0.848,0.128,1.094,0.337L411.298,469.879z"/>
			<path id="XMLID_331_" style="fill:#1C262D;" d="M418.965,471.757c0,0.222-0.015,0.489-0.037,0.651h-5.085
				c0.207,1.036,0.933,1.488,1.843,1.488c0.622,0,1.295-0.252,1.813-0.688l1.132,1.243c-0.814,0.748-1.85,1.088-3.057,1.088
				c-2.198,0-3.723-1.495-3.723-3.753c0-2.258,1.48-3.797,3.627-3.797C417.544,467.99,418.958,469.522,418.965,471.757z
				 M413.851,471.091h3.175c-0.177-0.918-0.733-1.436-1.562-1.436C414.554,469.655,414.021,470.203,413.851,471.091z"/>
			<path id="XMLID_328_" style="fill:#1C262D;" d="M426.618,471.757c0,0.222-0.015,0.489-0.037,0.651h-5.085
				c0.207,1.036,0.933,1.488,1.843,1.488c0.622,0,1.295-0.252,1.813-0.688l1.132,1.243c-0.814,0.748-1.85,1.088-3.057,1.088
				c-2.198,0-3.723-1.495-3.723-3.753c0-2.258,1.48-3.797,3.627-3.797C425.197,467.99,426.611,469.522,426.618,471.757z
				 M421.504,471.091h3.175c-0.178-0.918-0.733-1.436-1.562-1.436C422.207,469.655,421.674,470.203,421.504,471.091z"/>
			<path id="XMLID_325_" style="fill:#1C262D;" d="M434.964,471.764c0,2.154-1.495,3.775-3.471,3.775
				c-0.962,0-1.643-0.378-2.109-0.933v3.708h-1.924v-10.133h1.887v0.792c0.466-0.585,1.155-0.984,2.139-0.984
				C433.469,467.99,434.964,469.61,434.964,471.764z M429.287,471.764c0,1.132,0.747,1.976,1.843,1.976
				c1.14,0,1.85-0.881,1.85-1.976c0-1.095-0.71-1.976-1.85-1.976C430.035,469.788,429.287,470.632,429.287,471.764z"/>
			<path id="XMLID_322_" style="fill:#1C262D;" d="M438.068,465.836c0,0.696-0.54,1.229-1.236,1.229
				c-0.696,0-1.229-0.533-1.229-1.229c0-0.696,0.533-1.243,1.229-1.243C437.527,464.592,438.068,465.14,438.068,465.836z
				 M437.809,475.354h-1.932v-7.172h1.932V475.354z"/>
			<path id="XMLID_320_" style="fill:#1C262D;" d="M441.032,470.736l2.701-2.554h2.368l-3.479,3.375l3.501,3.797h-2.376
				l-2.716-2.901v2.901H439.1v-10.658h1.932V470.736z"/>
		</g>
		<g>
			<path style="fill:#1C262D;" d="M309.412,475.289v-1.055c-0.527,0.718-1.391,1.23-2.387,1.23c-1.846,0-3.149-1.406-3.149-3.706
				c0-2.256,1.289-3.721,3.149-3.721c0.952,0,1.816,0.469,2.387,1.245v-3.765h1.099v9.77H309.412z M309.412,473.37v-3.208
				c-0.395-0.615-1.245-1.143-2.124-1.143c-1.421,0-2.27,1.172-2.27,2.739c0,1.567,0.85,2.724,2.27,2.724
				C308.168,474.483,309.017,473.986,309.412,473.37z"/>
			<path style="fill:#1C262D;" d="M311.932,471.744c0-2.051,1.465-3.706,3.486-3.706c2.139,0,3.398,1.67,3.398,3.794v0.279h-5.727
				c0.088,1.333,1.026,2.446,2.549,2.446c0.806,0,1.626-0.322,2.182-0.894l0.527,0.718c-0.703,0.703-1.655,1.084-2.812,1.084
				C313.44,475.465,311.932,473.956,311.932,471.744z M315.404,468.947c-1.509,0-2.256,1.274-2.315,2.358h4.643
				C317.718,470.25,317.015,468.947,315.404,468.947z"/>
			<path style="fill:#1C262D;" d="M319.607,474.351l0.571-0.791c0.469,0.542,1.362,1.011,2.329,1.011c1.084,0,1.67-0.513,1.67-1.216
				c0-1.714-4.38-0.659-4.38-3.281c0-1.098,0.952-2.036,2.636-2.036c1.201,0,2.051,0.454,2.622,1.026l-0.513,0.762
				c-0.424-0.513-1.201-0.894-2.109-0.894c-0.967,0-1.567,0.483-1.567,1.113c0,1.552,4.38,0.527,4.38,3.281
				c0,1.187-0.952,2.138-2.783,2.138C321.306,475.465,320.325,475.113,319.607,474.351z"/>
			<path style="fill:#1C262D;" d="M326.477,466.471c0-0.41,0.337-0.747,0.732-0.747c0.41,0,0.747,0.337,0.747,0.747
				c0,0.41-0.337,0.732-0.747,0.732C326.814,467.203,326.477,466.881,326.477,466.471z M326.667,475.289v-7.075h1.099v7.075H326.667
				z"/>
			<path style="fill:#1C262D;" d="M329.582,477.105l0.556-0.82c0.586,0.703,1.289,0.967,2.3,0.967c1.172,0,2.27-0.571,2.27-2.124
				v-1.011c-0.513,0.718-1.377,1.26-2.373,1.26c-1.845,0-3.149-1.377-3.149-3.662c0-2.27,1.289-3.677,3.149-3.677
				c0.952,0,1.802,0.469,2.373,1.245v-1.069h1.099v6.87c0,2.344-1.641,3.076-3.369,3.076
				C331.237,478.16,330.417,477.926,329.582,477.105z M334.709,473.253v-3.091c-0.381-0.615-1.23-1.143-2.109-1.143
				c-1.421,0-2.27,1.128-2.27,2.695c0,1.553,0.849,2.695,2.27,2.695C333.478,474.41,334.328,473.868,334.709,473.253z"/>
			<path style="fill:#1C262D;" d="M342.413,475.289v-4.629c0-1.245-0.63-1.641-1.582-1.641c-0.865,0-1.685,0.527-2.095,1.099v5.17
				h-1.099v-7.075h1.099v1.025c0.498-0.586,1.465-1.201,2.519-1.201c1.48,0,2.256,0.747,2.256,2.285v4.966H342.413z"/>
			<path style="fill:#1C262D;" d="M344.932,471.744c0-2.051,1.465-3.706,3.486-3.706c2.138,0,3.398,1.67,3.398,3.794v0.279h-5.727
				c0.088,1.333,1.025,2.446,2.549,2.446c0.806,0,1.626-0.322,2.183-0.894l0.527,0.718c-0.703,0.703-1.655,1.084-2.812,1.084
				C346.441,475.465,344.932,473.956,344.932,471.744z M348.404,468.947c-1.509,0-2.256,1.274-2.314,2.358h4.643
				C350.718,470.25,350.015,468.947,348.404,468.947z"/>
			<path style="fill:#1C262D;" d="M358.35,475.289v-1.055c-0.527,0.718-1.392,1.23-2.388,1.23c-1.846,0-3.149-1.406-3.149-3.706
				c0-2.256,1.289-3.721,3.149-3.721c0.952,0,1.817,0.469,2.388,1.245v-3.765h1.098v9.77H358.35z M358.35,473.37v-3.208
				c-0.396-0.615-1.245-1.143-2.124-1.143c-1.421,0-2.27,1.172-2.27,2.739c0,1.567,0.849,2.724,2.27,2.724
				C357.105,474.483,357.954,473.986,358.35,473.37z"/>
			<path style="fill:#1C262D;" d="M364.692,475.289v-9.77h1.099v3.765c0.572-0.776,1.421-1.245,2.388-1.245
				c1.845,0,3.149,1.465,3.149,3.721c0,2.299-1.304,3.706-3.149,3.706c-0.996,0-1.86-0.513-2.388-1.23v1.055H364.692z
				 M367.9,474.483c1.436,0,2.286-1.157,2.286-2.724c0-1.568-0.85-2.739-2.286-2.739c-0.864,0-1.728,0.527-2.109,1.143v3.208
				C366.171,473.986,367.036,474.483,367.9,474.483z"/>
			<path style="fill:#1C262D;" d="M372.529,477.061c0.161,0.073,0.425,0.117,0.601,0.117c0.483,0,0.806-0.161,1.055-0.747
				l0.469-1.069l-2.959-7.148h1.187l2.358,5.8l2.344-5.8h1.201l-3.545,8.51c-0.425,1.025-1.143,1.421-2.08,1.435
				c-0.234,0-0.601-0.044-0.806-0.103L372.529,477.061z"/>
		</g>
	</g>
</g>
</svg>
