<?xml version="1.0" encoding="utf-8"?>
<!-- Generator: Adobe Illustrator 27.5.0, SVG Export Plug-In . SVG Version: 6.00 Build 0)  -->
<svg version="1.1" xmlns="http://www.w3.org/2000/svg" xmlns:xlink="http://www.w3.org/1999/xlink" x="0px" y="0px"
	 viewBox="0 0 500 500" style="enable-background:new 0 0 500 500;" xml:space="preserve">
<g id="Background_2">
	<g>
		<g>
			<g>
				<g>
					<rect y="382.398" style="fill:#D1E3FF;" width="500" height="0.25"/>
					<rect x="142.018" y="388.438" style="fill:#D1E3FF;" width="10.482" height="0.25"/>
					<rect x="448.333" y="395" style="fill:#D1E3FF;" width="17.855" height="0.25"/>
					<rect x="322.74" y="388.563" style="fill:#D1E3FF;" width="59.154" height="0.25"/>
					<rect x="188.642" y="394.264" style="fill:#D1E3FF;" width="45.255" height="0.25"/>
					<rect x="124" y="392.681" style="fill:#D1E3FF;" width="15.675" height="0.25"/>
					<rect x="403.778" y="394.264" style="fill:#D1E3FF;" width="22.556" height="0.25"/>
					<rect x="64.932" y="392.556" style="fill:#D1E3FF;" width="53.238" height="0.25"/>
					<path style="fill:#D1E3FF;" d="M237.014,337.8H43.915c-3.147,0-5.708-2.561-5.708-5.708V60.66c0-3.147,2.561-5.708,5.708-5.708
						h193.099c3.146,0,5.707,2.561,5.707,5.708v271.432C242.721,335.239,240.16,337.8,237.014,337.8z M43.915,55.203
						c-3.01,0-5.458,2.448-5.458,5.458v271.432c0,3.01,2.448,5.458,5.458,5.458h193.099c3.009,0,5.457-2.448,5.457-5.458V60.66
						c0-3.009-2.448-5.458-5.457-5.458H43.915z"/>
					<path style="fill:#D1E3FF;" d="M453.31,337.8H260.212c-3.146,0-5.707-2.561-5.707-5.708V60.66c0-3.147,2.561-5.708,5.707-5.708
						H453.31c3.148,0,5.708,2.561,5.708,5.708v271.432C459.019,335.239,456.458,337.8,453.31,337.8z M260.212,55.203
						c-3.009,0-5.457,2.448-5.457,5.458v271.432c0,3.01,2.448,5.458,5.457,5.458H453.31c3.01,0,5.458-2.448,5.458-5.458V60.66
						c0-3.009-2.448-5.458-5.458-5.458H260.212z"/>
				</g>
			</g>
		</g>
		<g>
			<g>
				<g>
					<g>
						
							<rect x="77.558" y="84.63" transform="matrix(-1 -1.224647e-16 1.224647e-16 -1 281.3531 358.2012)" style="fill:#D1E3FF;" width="126.237" height="188.942"/>
						
							<rect x="74.752" y="84.63" transform="matrix(-1 -1.224647e-16 1.224647e-16 -1 275.7425 358.2012)" style="fill:#F3F8FF;" width="126.238" height="188.942"/>
						
							<rect x="49.057" y="121.017" transform="matrix(-1.836970e-16 1 -1 -1.836970e-16 316.9719 41.2293)" style="fill:#FFFFFF;" width="177.629" height="116.167"/>
						
							<rect x="-7.966" y="178.04" transform="matrix(-1.836970e-16 1 -1 -1.836970e-16 259.949 98.2522)" style="fill:#D1E3FF;" width="177.629" height="2.121"/>
						
							<rect x="76.835" y="212.797" transform="matrix(-1 -1.224647e-16 1.224647e-16 -1 275.7425 433.1875)" style="fill:#F3F8FF;" width="122.072" height="7.594"/>
					</g>
					<g>
						<path style="fill:#D1E3FF;" d="M69.263,75.268h140.022c0.426,0,0.775,0.349,0.775,0.775l0,0c0,0.426-0.349,0.775-0.775,0.775
							H69.263c-0.426,0-0.775-0.349-0.775-0.775l0,0C68.487,75.616,68.836,75.268,69.263,75.268z"/>
						<path style="fill:#D1E3FF;" d="M64.611,76.043c0,2.141,1.735,3.876,3.876,3.876c2.141,0,3.876-1.735,3.876-3.876
							c0-2.141-1.735-3.876-3.876-3.876C66.347,72.167,64.611,73.902,64.611,76.043z"/>
						<path style="fill:#D1E3FF;" d="M202.749,80.384L202.749,80.384c0.576,0,1.047-0.471,1.047-1.047v-2.248
							c0-0.576-0.471-1.047-1.047-1.047l0,0c-0.576,0-1.047,0.471-1.047,1.047v2.248C201.702,79.913,202.173,80.384,202.749,80.384z
							"/>
						<path style="fill:#D1E3FF;" d="M80.954,80.384L80.954,80.384c0.576,0,1.047-0.471,1.047-1.047v-2.248
							c0-0.576-0.471-1.047-1.047-1.047l0,0c-0.576,0-1.047,0.471-1.047,1.047v2.248C79.907,79.913,80.378,80.384,80.954,80.384z"/>
					</g>
				</g>
				
					<rect x="69.51" y="76.043" transform="matrix(-1 -1.224647e-16 1.224647e-16 -1 268.4175 190.9504)" style="opacity:0.4;fill:#CCE3FF;" width="129.397" height="38.865"/>
				<path style="fill:#D1E3FF;" d="M186.406,76.043c0,2.141,1.735,3.876,3.876,3.876c2.141,0,3.876-1.735,3.876-3.876
					c0-2.141-1.735-3.876-3.876-3.876C188.141,72.167,186.406,73.902,186.406,76.043z"/>
			</g>
			<g>
				<g>
					
						<rect x="392.711" y="296.306" transform="matrix(-1 -1.224647e-16 1.224647e-16 -1 821.9386 673.5746)" style="fill:#E3EEFF;" width="36.516" height="80.962"/>
					
						<rect x="242.133" y="377.268" transform="matrix(-1 -1.224647e-16 1.224647e-16 -1 664.3495 759.6668)" style="fill:#E3EEFF;" width="180.083" height="5.13"/>
					<rect x="235.122" y="296.306" style="fill:#F3F8FF;" width="157.589" height="80.962"/>
					<rect x="249.479" y="306.272" style="fill:#E3EEFF;" width="128.876" height="26.553"/>
					<rect x="249.479" y="340.75" style="fill:#E3EEFF;" width="128.876" height="26.553"/>
					<path style="fill:#F3F8FF;" d="M297.496,321.368h32.842c0.885,0,1.608-0.724,1.608-1.608v-0.424
						c0-0.885-0.724-1.608-1.608-1.608h-32.842c-0.885,0-1.608,0.724-1.608,1.608v0.424
						C295.887,320.645,296.611,321.368,297.496,321.368z"/>
					<path style="fill:#F3F8FF;" d="M297.496,355.847h32.842c0.885,0,1.608-0.724,1.608-1.608v-0.424
						c0-0.885-0.724-1.608-1.608-1.608h-32.842c-0.885,0-1.608,0.724-1.608,1.608v0.424
						C295.887,355.123,296.611,355.847,297.496,355.847z"/>
				</g>
				<g>
					
						<ellipse transform="matrix(0.9662 -0.2578 0.2578 0.9662 -59.4969 98.8532)" style="fill:#F3F8FF;" cx="347.241" cy="276.326" rx="8.045" ry="8.045"/>
					
						<ellipse transform="matrix(0.7071 -0.7071 0.7071 0.7071 -96.3234 317.0806)" style="fill:#F3F8FF;" cx="334.588" cy="274.813" rx="8.045" ry="8.045"/>
					<circle style="fill:#F3F8FF;" cx="295.668" cy="278.526" r="8.045"/>
					
						<ellipse transform="matrix(0.987 -0.1606 0.1606 0.987 -41.2167 54.4775)" style="fill:#F3F8FF;" cx="316.435" cy="282.239" rx="8.045" ry="8.045"/>
				</g>
				<path style="fill:#E3EEFF;" d="M370.633,277.788c0,0-1.303,18.518-51.263,18.518s-51.263-18.518-51.263-18.518H370.633z"/>
			</g>
			<g>
				<g>
					
						<rect x="182.264" y="298.333" transform="matrix(-1 -1.224647e-16 1.224647e-16 -1 382.7556 675.7225)" style="fill:#E3EEFF;" width="18.228" height="79.056"/>
					
						<rect x="78.75" y="377.389" transform="matrix(-1 -1.224647e-16 1.224647e-16 -1 275.7425 759.7876)" style="fill:#E3EEFF;" width="118.242" height="5.009"/>
					<rect x="75.25" y="298.333" style="fill:#F3F8FF;" width="107.013" height="79.056"/>
					<rect x="82.417" y="308.064" style="fill:#E3EEFF;" width="92.68" height="25.927"/>
					<rect x="82.417" y="341.731" style="fill:#E3EEFF;" width="92.68" height="25.927"/>
					<path style="fill:#F3F8FF;" d="M114.72,311.233h28.073c1.9,0,3.455-1.555,3.455-3.455l0,0c0-1.9-1.555-3.455-3.455-3.455
						H114.72c-1.9,0-3.455,1.555-3.455,3.455l0,0C111.265,309.678,112.82,311.233,114.72,311.233z"/>
					<path style="fill:#F3F8FF;" d="M114.721,344.899h28.072c1.9,0,3.455-1.555,3.455-3.455l0,0c0-1.9-1.555-3.455-3.455-3.455
						h-28.072c-1.9,0-3.455,1.555-3.455,3.455l0,0C111.266,343.345,112.821,344.899,114.721,344.899z"/>
				</g>
			</g>
			<g>
				
					<rect x="279.642" y="102.034" transform="matrix(-1 -1.224647e-16 1.224647e-16 -1 611.6266 310.6116)" style="fill:#D1E3FF;" width="52.343" height="106.543"/>
				
					<rect x="275.442" y="102.034" transform="matrix(-1 -1.224647e-16 1.224647e-16 -1 606.2952 310.6116)" style="fill:#F3F8FF;" width="55.411" height="106.543"/>
				
					<rect x="257.939" y="135.663" transform="matrix(-1.836970e-16 1 -1 -1.836970e-16 458.4535 -147.8419)" style="fill:#FFFFFF;" width="90.418" height="39.285"/>
			</g>
			<g>
				
					<rect x="401.421" y="158.732" transform="matrix(-1 -1.224647e-16 1.224647e-16 -1 831.5 350.4815)" style="fill:#E3EEFF;" width="28.658" height="33.016"/>
				
					<rect x="395.623" y="158.732" transform="matrix(-1 -1.224647e-16 1.224647e-16 -1 822.303 350.4815)" style="fill:#F3F8FF;" width="31.058" height="33.016"/>
				
					<rect x="397.245" y="162.314" transform="matrix(-1.836970e-16 1 -1 -1.836970e-16 586.3922 -235.9108)" style="fill:#FFFFFF;" width="27.813" height="25.854"/>
				<path style="fill:#F3F8FF;" d="M417.812,180.125v-9.769c0-1.259-1.021-2.281-2.281-2.281h-8.76c-1.26,0-2.281,1.021-2.281,2.281
					v9.769c0,1.26,1.021,2.281,2.281,2.281h8.76C416.791,182.406,417.812,181.385,417.812,180.125z"/>
			</g>
			<g>
				
					<rect x="378.327" y="112.792" transform="matrix(-1 -1.224647e-16 1.224647e-16 -1 785.3127 258.6013)" style="fill:#E3EEFF;" width="28.658" height="33.016"/>
				
					<rect x="372.529" y="112.792" transform="matrix(-1 -1.224647e-16 1.224647e-16 -1 776.1156 258.6013)" style="fill:#F3F8FF;" width="31.058" height="33.016"/>
				
					<rect x="374.151" y="116.374" transform="matrix(-1.836970e-16 1 -1 -1.836970e-16 517.3586 -258.7572)" style="fill:#FFFFFF;" width="27.813" height="25.854"/>
				<path style="fill:#F3F8FF;" d="M394.718,134.185v-9.769c0-1.259-1.021-2.281-2.281-2.281h-8.76c-1.26,0-2.281,1.021-2.281,2.281
					v9.769c0,1.26,1.021,2.281,2.281,2.281h8.76C393.697,136.466,394.718,135.445,394.718,134.185z"/>
			</g>
		</g>
	</g>
</g>
<g id="Background_1" style="display:none;">
	<path style="display:inline;opacity:0.4;fill:#D4E8FF;" d="M168.513,90.521c34.682-28.768,73.029-10.608,100.363,16.553
		c34.188,33.971,52.297,58.924,104.238,61.274c44.13,1.997,64.535-2.165,73.158,49.127c7.167,42.626,0.094,90.189-40.659,112.113
		c-36.924,19.864-96.383,15.448-128.484-12.107c-40.183-34.493-17.619-83.118-42.397-122.665
		c-23.495-37.499-44.446-11.488-70.827-26.715C135.458,151.68,141.205,113.172,168.513,90.521z"/>
</g>
<g id="Objects">
	<g>
		<ellipse style="fill:#F0F6FF;" cx="250" cy="416.238" rx="193.889" ry="11.323"/>
		<g>
			<g>
				<g>
					<g>
						<rect x="109.674" y="126.368" style="fill:#0F264C;" width="215.908" height="211.411"/>
						<rect x="115.227" y="133.128" style="fill:#FFFFFF;" width="204.814" height="204.651"/>
					</g>
					<polygon style="fill:#0F264C;" points="325.582,334.797 325.582,337.779 216.773,337.779 240.287,314.278 272.669,281.884 
											"/>
					<polygon style="fill:#0F264C;" points="109.674,337.779 109.674,317.459 176.571,250.562 263.788,337.779 					"/>
					<circle style="fill:#0F264C;" cx="253.234" cy="194.224" r="33.056"/>
				</g>
				<g>
					<g>
						
							<rect x="367.613" y="134.583" transform="matrix(0.0972 -0.9953 0.9953 0.0972 194.8258 491.1188)" style="fill:#0053CC;" width="1" height="7.18"/>
						
							<rect x="348.47" y="127.52" transform="matrix(0.0972 -0.9953 0.9953 0.0972 179.3926 470.3732)" style="fill:#0053CC;" width="1" height="17.568"/>
						
							<rect x="165.15" y="129.944" transform="matrix(0.0972 -0.9953 0.9953 0.0972 7.7585 484.3497)" style="fill:#0053CC;" width="211.411" height="215.908"/>
						
							<rect x="168.208" y="138.856" transform="matrix(0.0972 -0.9953 0.9953 0.0972 4.1191 487.067)" style="fill:#FFFFFF;" width="204.651" height="204.814"/>
					</g>
					<polygon style="fill:#0053CC;" points="368.315,350.627 368.025,353.595 259.731,343.02 285.418,321.916 320.795,292.822 					
						"/>
					<polygon style="fill:#0053CC;" points="153.139,332.611 155.114,312.387 228.196,252.308 306.523,347.59 					"/>
					
						<ellipse transform="matrix(0.4014 -0.9159 0.9159 0.4014 -1.0201 405.8163)" style="fill:#0053CC;" cx="309.972" cy="203.689" rx="33.056" ry="33.056"/>
				</g>
				<g>
					<g>
						
							<rect x="83.955" y="156.962" transform="matrix(0.9979 -0.0652 0.0652 0.9979 -16.7109 13.0659)" style="fill:#9FC6FF;" width="215.908" height="211.411"/>
						
							<rect x="89.729" y="163.714" transform="matrix(0.9979 -0.0652 0.0652 0.9979 -16.9302 13.0878)" style="fill:#FFFFFF;" width="204.814" height="204.651"/>
					</g>
					<polygon style="fill:#9FC6FF;" points="306.329,358.136 306.523,361.112 197.946,368.203 219.878,343.22 250.08,308.784 					
						"/>
					<polygon style="fill:#9FC6FF;" points="91.074,375.183 89.75,354.907 152.145,283.791 244.861,365.139 					"/>
					
						<ellipse transform="matrix(0.7071 -0.7071 0.7071 0.7071 -91.4925 224.2719)" style="fill:#9FC6FF;" cx="224.974" cy="222.577" rx="33.056" ry="33.056"/>
				</g>
			</g>
			<g>
				<g>
					<path style="fill:#FFC3BD;" d="M379.124,256.502l-7.022,2.325l6.344,6.81c0,0,5.538-3.306,4.114-6.436L379.124,256.502z"/>
					<polygon style="fill:#FFC3BD;" points="367.292,265.095 372.794,270.395 378.446,265.637 372.102,258.827 					"/>
					<path style="fill:#FFC3BD;" d="M390.627,200.918c0.709,1.31,1.302,2.477,1.885,3.731c0.585,1.234,1.147,2.474,1.695,3.722
						c1.075,2.504,2.069,5.049,2.953,7.65c0.906,2.591,1.665,5.261,2.323,7.981l0.469,2.054l0.381,2.098
						c0.136,0.692,0.22,1.415,0.314,2.13l0.139,1.073l0.034,0.268l0.043,0.446c0.033,0.342,0.032,0.643,0.032,0.954
						c-0.078,2.396-0.689,4.014-1.297,5.527c-0.627,1.493-1.338,2.8-2.076,4.054c-1.489,2.488-3.132,4.71-4.829,6.853
						c-3.419,4.271-7.096,8.109-11.098,11.767l-4.072-3.654c2.911-4.204,5.797-8.546,8.396-12.843
						c1.294-2.152,2.502-4.332,3.49-6.459c0.49-1.056,0.923-2.111,1.211-3.071c0.29-0.934,0.427-1.875,0.357-2.107
						c-0.01-0.017-0.01-0.043-0.021-0.026c-0.008-0.019,0.008,0.058-0.013-0.041l-0.047-0.216l-0.186-0.863
						c-0.125-0.575-0.234-1.147-0.401-1.73l-0.456-1.738l-0.515-1.747c-0.729-2.327-1.538-4.657-2.444-6.979
						c-0.914-2.316-1.869-4.632-2.888-6.926c-0.982-2.281-2.118-4.625-3.138-6.741L390.627,200.918z"/>
					<path style="fill:#9FC6FF;" d="M402.1,218.41l-13.61,7.19l-3.28,1.74c0,0-0.77-2.25-1.86-5.52c-0.88-2.61-1.98-5.86-3.06-9.15
						c-0.34-1.04-0.68-2.07-1.01-3.09c-0.1-0.29-0.2-0.57-0.29-0.86c-2.94-9.01,5.22-13.05,10.77-11.89
						C399.27,198.82,402.1,218.41,402.1,218.41z"/>
					<path style="fill:#77B3FC;" d="M388.49,225.6l-3.28,1.74c0,0-0.77-2.25-1.86-5.52c-0.88-2.61-1.98-5.86-3.06-9.15
						c-0.34-1.04-0.68-2.07-1.01-3.09l7.5-1.47C386.78,208.11,387.81,220.01,388.49,225.6z"/>
				</g>
				<path style="fill:#FFC3BD;" d="M378.933,176.219c-1.567,5.201-3.57,14.816-0.211,18.724c0,0-1.985,5.236-11.84,4.257
					c-10.837-1.077-4.645-5.895-4.645-5.895c6.055-0.825,6.339-5.228,5.718-9.452L378.933,176.219z"/>
				<path style="fill:#14365B;" d="M360.129,195.136c0.498-0.956-0.214-4.552-0.214-4.552s15.462-2.082,20.994-0.111
					c2.976,1.06,0.365,6.407,0.365,6.407L360.129,195.136z"/>
				<path style="fill:#0F264C;" d="M360.449,168.349c-0.058,0.585-0.415,1.028-0.797,0.99c-0.382-0.038-0.645-0.543-0.587-1.128
					c0.058-0.585,0.415-1.028,0.797-0.99C360.244,167.259,360.507,167.764,360.449,168.349z"/>
				<path style="fill:#ED847E;" d="M360.432,168.641c0,0-1.665,3.242-3.291,4.724c0.939,1.068,2.742,0.802,2.742,0.802
					L360.432,168.641z"/>
				<path style="fill:#0F264C;" d="M362.686,166.417c-0.116,0-0.229-0.059-0.295-0.166c-0.802-1.313-2.072-1.365-2.085-1.365
					c-0.19-0.006-0.341-0.165-0.335-0.355c0.005-0.191,0.138-0.347,0.354-0.335c0.067,0.002,1.659,0.067,2.655,1.696
					c0.099,0.163,0.048,0.375-0.115,0.474C362.81,166.4,362.748,166.417,362.686,166.417z"/>
				<polygon style="fill:#FFC3BD;" points="328.954,400.734 321.688,400.194 321.006,383.223 328.272,383.764 				"/>
				<polygon style="fill:#FFC3BD;" points="375.396,407.206 368.11,407.206 362.433,390.333 369.719,390.333 				"/>
				<path style="fill:#14365B;" d="M367.137,406.362l8.883,0c0.298,0,0.556,0.207,0.62,0.498l1.439,6.476
					c0.149,0.672-0.379,1.307-1.067,1.296c-2.858-0.049-4.943-0.217-8.543-0.217c-2.215,0-6.777,0.23-9.836,0.23
					c-2.991,0-3.458-3.024-2.206-3.298c5.614-1.228,7.729-2.922,9.526-4.537C366.279,406.519,366.702,406.362,367.137,406.362z"/>
				<path style="fill:#14365B;" d="M321.341,398.563l7.935,0.59c0.297,0.022,0.539,0.247,0.582,0.542l0.955,6.565
					c0.099,0.68-0.457,1.277-1.141,1.215c-2.859-0.261-6.982-0.737-10.58-1.004c-4.207-0.313-7.006-0.461-11.939-0.828
					c-2.983-0.222-3.587-3.299-2.318-3.479c5.777-0.821,9.577-0.501,14.714-3.165C320.107,398.709,320.714,398.516,321.341,398.563z
					"/>
				<g>
					<polygon style="fill:#F29994;" points="321.008,383.228 321.358,391.975 328.627,392.516 328.277,383.768 					"/>
					<polygon style="fill:#F29994;" points="369.722,390.337 362.433,390.337 365.363,399.035 372.652,399.035 					"/>
				</g>
				<path style="fill:#9FC6FF;" d="M384.81,260.37c-5.7-0.42-27.15-2.02-38.86-2.89c-1.4-11.34-1.65-21.18-1.28-29.48
					c0.16-3.54,0.44-6.8,0.78-9.78c1.8-15.59,5.6-23.51,5.6-23.51s5.53-1.09,11.32-1.19c4.4-0.07,11.58,0.62,16.52,1.23
					c6.33,0.78,11.77,2.32,11.77,2.32C382.81,224.75,385.52,254.42,384.81,260.37z"/>
				<path style="fill:#77B3FC;" d="M349.36,221.21l-4.69,6.79c0.16-3.54,0.44-6.8,0.78-9.78L349.36,221.21z"/>
				<path style="fill:#FFC3BD;" d="M346.375,199.738c-0.656,1.137-1.44,2.427-2.174,3.647c-0.752,1.234-1.527,2.457-2.318,3.666
					c-1.574,2.425-3.205,4.805-4.892,7.111c-1.695,2.298-3.455,4.522-5.298,6.587c-1.663,1.847-3.397,3.559-5.185,5.005
					c-1.542,0.347-3.103,0.584-4.684,0.674c-1.981,0.08-3.993,0.002-5.997-0.356c-2.007-0.332-4.011-0.894-5.967-1.661
					c-0.976-0.385-1.957-0.796-2.897-1.283c-0.473-0.239-0.935-0.496-1.387-0.761c-0.437-0.243-0.946-0.564-1.257-0.75l-3.813,3.923
					c0.547,0.618,0.949,1.041,1.441,1.519c0.48,0.451,0.968,0.887,1.471,1.304c1.003,0.836,2.051,1.62,3.156,2.327
					c2.206,1.42,4.614,2.567,7.155,3.423c2.545,0.837,5.223,1.382,7.942,1.563c2.717,0.164,5.466,0.021,8.141-0.462l0.833-0.15
					l0.946-0.624c2.926-1.931,5.452-4.118,7.743-6.431c2.306-2.302,4.396-4.721,6.354-7.21c1.971-2.479,3.785-5.044,5.514-7.655
					c0.855-1.312,1.689-2.635,2.501-3.974c0.828-1.354,1.577-2.657,2.376-4.156L346.375,199.738z"/>
				<path style="fill:#9FC6FF;" d="M359.57,203.087c-0.52,6.947-8.742,20.47-8.742,20.47l-18.605-9.779
					c0,0,6.301-10.126,13.186-16.16C352.366,191.518,360.14,195.464,359.57,203.087z"/>
				<path style="fill:#FFC3BD;" d="M307.592,224.036l-5.438-4.755l-4.197,7.14c0,0,3.87,4.343,8.418,1.61L307.592,224.036z"/>
				<polygon style="fill:#FFC3BD;" points="294.584,216.118 291.695,222.692 297.958,226.421 302.155,219.281 				"/>
				<path style="fill:#FFC3BD;" d="M380.357,168.299c-1.155,7.138-1.468,11.375-5.461,14.701
					c-6.007,5.003-14.546,0.833-15.547-6.507c-0.901-6.606,1.138-17.17,8.453-19.33
					C375.007,155.037,381.511,161.161,380.357,168.299z"/>
				<path style="fill:#0F264C;" d="M388.444,164.541c5.333,3.739-7.378,17.461-11.896,17.311
					c-4.525-0.151-12.968-12.686-10.214-19.347c-2.333-0.949-3.084-1.255-4.028-3.631c-1.713-4.311,0.358-11.503,10.916-9.485
					c-2.62,1.779-0.806,3.194,4.167,2.5c-1.944,2.333,1.278,4.055,6.111,3.055C382.667,159.222,393.444,159.833,388.444,164.541z"/>
				<path style="fill:#FFC3BD;" d="M370.311,170.512c-0.341,1.92-1.536,3.503-2.864,4.4c-1.998,1.348-3.754-0.255-3.834-2.537
					c-0.072-2.054,0.881-5.231,3.192-5.667C369.081,166.278,370.7,168.317,370.311,170.512z"/>
				<path style="fill:#14365B;" d="M375.284,397.347h-13.35c0,0-13.009-44.714-16.274-67.87c-0.701-4.997-0.296-11.593,0.756-18.759
					c1.789-12.249,5.411-26.162,8.423-36.541c2.681-9.228,4.889-15.672,4.889-15.672s10.204,0.759,25.087,1.869
					c-1.361,18.204-19.379,48.109-18.125,72.818C367.839,355.954,375.284,397.347,375.284,397.347z"/>
				<path style="fill:#0A1B35;" d="M361.482,279.442c-0.143,12.121-8.659,25.511-15.065,31.275
					c1.789-12.249,5.411-26.162,8.423-36.541C356.712,273.804,359.924,277.352,361.482,279.442z"/>
				<path style="fill:#14365B;" d="M345.948,257.481c0,0-31.478,47.623-32.335,69.84c-0.892,23.108,5.144,62.773,5.144,62.773
					l12.309,0.915c0,0,1.434-37.72,3.665-60.314c2.432-24.631,37.981-52.082,39.396-71.119
					C362.109,258.682,345.948,257.481,345.948,257.481z"/>
				<polygon style="fill:#0053CC;" points="359.575,397.639 377.019,397.639 377.019,392.944 357.519,392.639 				"/>
				<polygon style="fill:#0053CC;" points="316.291,390.158 333.384,391.47 333.736,386.733 314.612,385.02 				"/>
				<path style="fill:#407BFF;" d="M364.728,407.636c-0.555,0-1.073-0.095-1.403-0.372c-0.261-0.22-0.381-0.526-0.356-0.912
					c0.018-0.287,0.17-0.424,0.295-0.488c0.813-0.408,3.156,1.03,3.422,1.196c0.059,0.037,0.09,0.105,0.078,0.174
					c-0.011,0.069-0.062,0.124-0.13,0.141C366.129,407.496,365.402,407.636,364.728,407.636z M363.645,406.127
					c-0.09,0-0.166,0.014-0.224,0.044c-0.047,0.023-0.101,0.068-0.109,0.202c-0.017,0.275,0.06,0.48,0.234,0.626
					c0.398,0.336,1.351,0.381,2.587,0.132C365.311,406.655,364.204,406.127,363.645,406.127z"/>
				<path style="fill:#407BFF;" d="M366.594,407.379c-0.028,0-0.057-0.007-0.082-0.022c-0.754-0.409-2.212-2.006-2.058-2.817
					c0.028-0.147,0.137-0.402,0.549-0.452c0.267-0.038,0.516,0.041,0.735,0.221c0.847,0.692,1.021,2.795,1.027,2.884
					c0.005,0.063-0.024,0.124-0.078,0.158C366.659,407.369,366.627,407.379,366.594,407.379z M365.124,404.425
					c-0.026,0-0.052,0.002-0.078,0.005c-0.225,0.028-0.244,0.131-0.253,0.175c-0.091,0.48,0.838,1.686,1.587,2.255
					c-0.085-0.614-0.317-1.84-0.86-2.283C365.395,404.475,365.266,404.425,365.124,404.425z"/>
				<path style="fill:#407BFF;" d="M318.852,399.63c-0.948,0-1.906-0.133-2.359-0.599c-0.225-0.23-0.311-0.521-0.261-0.861
					c0.031-0.204,0.142-0.355,0.318-0.438c0.925-0.421,3.73,1.273,4.048,1.467c0.063,0.039,0.094,0.112,0.078,0.185
					c-0.016,0.071-0.075,0.125-0.147,0.134C320.063,399.575,319.459,399.63,318.852,399.63z M316.935,398.003
					c-0.096,0-0.177,0.014-0.239,0.043c-0.072,0.033-0.108,0.086-0.122,0.175c-0.035,0.232,0.02,0.418,0.166,0.569
					c0.419,0.429,1.609,0.588,3.232,0.44C318.961,398.652,317.596,398.003,316.935,398.003z"/>
				<path style="fill:#407BFF;" d="M320.507,399.52c-0.028,0-0.057-0.007-0.082-0.022c-0.848-0.458-2.468-2.158-2.274-2.97
					c0.046-0.191,0.2-0.421,0.677-0.434c0.355,0.002,0.667,0.114,0.933,0.366c0.867,0.828,0.918,2.8,0.92,2.883
					c0.001,0.061-0.03,0.119-0.083,0.151C320.569,399.511,320.538,399.52,320.507,399.52z M318.865,396.439
					c-0.01,0-0.018,0-0.028,0.001c-0.313,0.008-0.341,0.129-0.351,0.169c-0.116,0.486,0.973,1.809,1.827,2.413
					c-0.051-0.578-0.223-1.769-0.793-2.312C319.33,396.527,319.115,396.439,318.865,396.439z"/>
			</g>
		</g>
	</g>
</g>
<g id="Designed_by_Freepik">
	<g>
		<g>
			<g id="XMLID_197_">
				<g id="XMLID_216_">
					<path id="XMLID_224_" style="fill:#A5B7C6;" d="M261.442,464.892c-0.49,0.502-0.91,1.054-1.255,1.646l-0.527-0.273
						c-0.076-0.337-0.396-0.569-0.746-0.528c-0.375,0.044-0.643,0.384-0.599,0.759c0.044,0.375,0.384,0.643,0.758,0.599
						c0.074-0.009,0.144-0.029,0.208-0.059l0.511,0.265c-0.284,0.627-0.49,1.289-0.611,1.975l0.845,0.149
						c0.26-1.479,0.962-2.839,2.029-3.932L261.442,464.892z"/>
					<path id="XMLID_223_" style="fill:#A5B7C6;" d="M267.656,462.285c-0.194,0-0.386,0.007-0.577,0.019l-0.083-0.709
						c0.212-0.169,0.335-0.44,0.301-0.73c-0.052-0.445-0.456-0.763-0.901-0.711c-0.445,0.052-0.763,0.455-0.711,0.901
						c0.034,0.288,0.214,0.522,0.458,0.638l0.083,0.707c-0.808,0.132-1.589,0.376-2.332,0.732l0.37,0.774
						c1.058-0.506,2.199-0.762,3.392-0.762c0.562,0,1.124,0.06,1.67,0.178l0.182-0.839
						C268.903,462.352,268.279,462.285,267.656,462.285z"/>
					<path id="XMLID_222_" style="fill:#A5B7C6;" d="M275.133,465.17c0.375-0.046,0.641-0.387,0.595-0.761
						c-0.046-0.375-0.387-0.641-0.761-0.595c-0.35,0.043-0.606,0.344-0.6,0.689l-0.471,0.411c-0.473-0.487-1.007-0.92-1.594-1.29
						l-0.458,0.726c1.284,0.809,2.288,1.955,2.903,3.313l0.782-0.354c-0.284-0.627-0.643-1.214-1.067-1.75l0.455-0.397
						C274.986,465.175,275.059,465.179,275.133,465.17z"/>
					<path id="XMLID_221_" style="fill:#A5B7C6;" d="M267.036,473.845c-0.437,0.026-0.878,0.039-1.31,0.039
						c-0.997,0-1.962-0.069-2.807-0.203c-0.442-0.07-0.958-0.176-1.438-0.331c1.185,2.107,3.476,3.539,6.102,3.539
						c3.233,0,5.959-2.17,6.737-5.1c-0.772,0.509-1.705,0.935-2.784,1.271C270.201,473.478,268.643,473.749,267.036,473.845z"/>
					<path id="XMLID_217_" style="fill:#A5B7C6;" d="M267.656,464.002c-3.796,0-6.884,3.019-6.884,6.73
						c0,0.482,0.052,0.962,0.155,1.428c0.763,0.547,3.064,1.008,6.055,0.828c3.261-0.196,5.998-1.084,7.556-2.444
						c-0.006-0.221-0.023-0.442-0.051-0.659C274.056,466.531,271.12,464.002,267.656,464.002z M265.211,471.38
						c-1.155,0-2.095-0.94-2.095-2.095c0-1.155,0.94-2.095,2.095-2.095c1.155,0,2.095,0.94,2.095,2.095
						C267.306,470.44,266.366,471.38,265.211,471.38z M270.576,470.351c-0.849,0-1.54-0.691-1.54-1.54
						c0-0.849,0.691-1.541,1.54-1.541c0.849,0,1.541,0.691,1.541,1.541C272.116,469.66,271.425,470.351,270.576,470.351z"/>
				</g>
				<path id="XMLID_214_" style="fill:#A5B7C6;" d="M285.779,466.116c-0.334-0.131-0.912-0.35-1.565-0.269
					c-0.624,0.078-0.956,0.386-0.956,1.14v0.981h2.523v1.945h-2.523v6.177h-2.188v-6.177h-1.517v-1.945h1.517v-1.006
					c0-1.902,1.014-3.151,2.908-3.151c0.728,0,1.31,0.138,1.8,0.349L285.779,466.116z"/>
				<path id="XMLID_212_" style="fill:#A5B7C6;" d="M291.104,469.89c-0.2-0.034-0.405-0.052-0.596-0.052
					c-1.014,0-1.71,0.62-1.71,1.827v4.425h-2.188v-8.122h2.12v0.888c0.511-0.763,1.291-1.106,2.288-1.106
					c0.469,0,0.96,0.144,1.239,0.381L291.104,469.89z"/>
				<path id="XMLID_209_" style="fill:#A5B7C6;" d="M299.786,472.017c0,0.251-0.017,0.553-0.042,0.738h-5.758
					c0.235,1.173,1.056,1.685,2.087,1.685c0.704,0,1.467-0.285,2.053-0.779l1.282,1.408c-0.922,0.846-2.095,1.232-3.461,1.232
					c-2.489,0-4.216-1.693-4.216-4.249c0-2.556,1.676-4.3,4.107-4.3C298.177,467.75,299.778,469.485,299.786,472.017z
					 M293.995,471.262h3.595c-0.201-1.039-0.83-1.626-1.768-1.626C294.791,469.636,294.187,470.257,293.995,471.262z"/>
				<path id="XMLID_206_" style="fill:#A5B7C6;" d="M308.453,472.017c0,0.251-0.017,0.553-0.042,0.738h-5.758
					c0.235,1.173,1.056,1.685,2.087,1.685c0.704,0,1.467-0.285,2.053-0.779l1.282,1.408c-0.922,0.846-2.095,1.232-3.461,1.232
					c-2.489,0-4.216-1.693-4.216-4.249c0-2.556,1.676-4.3,4.107-4.3C306.843,467.75,308.444,469.485,308.453,472.017z
					 M302.661,471.262h3.596c-0.201-1.039-0.83-1.626-1.768-1.626C303.457,469.636,302.854,470.257,302.661,471.262z"/>
				<path id="XMLID_203_" style="fill:#A5B7C6;" d="M317.903,472.025c0,2.439-1.693,4.275-3.931,4.275
					c-1.09,0-1.861-0.428-2.389-1.056v4.199h-2.179v-11.474h2.137v0.897c0.528-0.662,1.307-1.115,2.422-1.115
					C316.21,467.75,317.903,469.586,317.903,472.025z M311.475,472.025c0,1.282,0.846,2.238,2.087,2.238
					c1.291,0,2.095-0.997,2.095-2.238c0-1.24-0.805-2.238-2.095-2.238C312.321,469.787,311.475,470.742,311.475,472.025z"/>
				<path id="XMLID_200_" style="fill:#A5B7C6;" d="M321.418,465.311c0,0.788-0.612,1.391-1.4,1.391
					c-0.788,0-1.391-0.603-1.391-1.391c0-0.788,0.604-1.408,1.391-1.408C320.806,463.903,321.418,464.524,321.418,465.311z
					 M321.124,476.09h-2.188v-8.122h2.188V476.09z"/>
				<path id="XMLID_198_" style="fill:#A5B7C6;" d="M324.775,470.86l3.059-2.892h2.682l-3.939,3.822l3.964,4.3h-2.69l-3.076-3.285
					v3.285h-2.188v-12.069h2.188V470.86z"/>
			</g>
			<g>
				<path style="fill:#A5B7C6;" d="M175.729,476.016v-1.194c-0.597,0.813-1.576,1.393-2.704,1.393c-2.09,0-3.566-1.592-3.566-4.196
					c0-2.555,1.46-4.213,3.566-4.213c1.078,0,2.057,0.531,2.704,1.41v-4.263h1.244v11.064H175.729z M175.729,473.843v-3.633
					c-0.448-0.697-1.41-1.294-2.405-1.294c-1.609,0-2.571,1.327-2.571,3.102c0,1.775,0.962,3.085,2.571,3.085
					C174.319,475.104,175.281,474.54,175.729,473.843z"/>
				<path style="fill:#A5B7C6;" d="M178.582,472.002c0-2.322,1.659-4.197,3.948-4.197c2.422,0,3.848,1.891,3.848,4.296v0.316h-6.486
					c0.1,1.509,1.161,2.77,2.886,2.77c0.912,0,1.841-0.365,2.471-1.012l0.597,0.813c-0.796,0.796-1.874,1.227-3.185,1.227
					C180.29,476.215,178.582,474.507,178.582,472.002z M182.513,468.834c-1.709,0-2.555,1.443-2.621,2.67h5.258
					C185.134,470.31,184.337,468.834,182.513,468.834z"/>
				<path style="fill:#A5B7C6;" d="M187.273,474.955l0.647-0.895c0.531,0.614,1.543,1.145,2.637,1.145
					c1.228,0,1.891-0.581,1.891-1.377c0-1.94-4.96-0.746-4.96-3.716c0-1.244,1.078-2.306,2.985-2.306
					c1.36,0,2.323,0.514,2.969,1.161l-0.581,0.863c-0.481-0.581-1.36-1.012-2.389-1.012c-1.095,0-1.775,0.547-1.775,1.261
					c0,1.758,4.96,0.597,4.96,3.716c0,1.344-1.078,2.422-3.151,2.422C189.197,476.215,188.086,475.817,187.273,474.955z"/>
				<path style="fill:#A5B7C6;" d="M195.053,466.031c0-0.464,0.382-0.846,0.829-0.846c0.465,0,0.846,0.381,0.846,0.846
					c0,0.465-0.381,0.829-0.846,0.829C195.434,466.86,195.053,466.495,195.053,466.031z M195.268,476.016v-8.012h1.244v8.012
					H195.268z"/>
				<path style="fill:#A5B7C6;" d="M198.569,478.073l0.63-0.929c0.663,0.796,1.46,1.095,2.604,1.095
					c1.327,0,2.571-0.647,2.571-2.405v-1.145c-0.581,0.813-1.559,1.427-2.687,1.427c-2.09,0-3.566-1.559-3.566-4.147
					c0-2.571,1.46-4.163,3.566-4.163c1.078,0,2.04,0.531,2.687,1.41v-1.211h1.244v7.78c0,2.654-1.858,3.483-3.815,3.483
					C200.443,479.267,199.514,479.002,198.569,478.073z M204.374,473.711v-3.5c-0.432-0.697-1.393-1.294-2.389-1.294
					c-1.609,0-2.571,1.277-2.571,3.052c0,1.758,0.962,3.052,2.571,3.052C202.981,475.021,203.943,474.408,204.374,473.711z"/>
				<path style="fill:#A5B7C6;" d="M213.099,476.016v-5.242c0-1.41-0.713-1.858-1.791-1.858c-0.979,0-1.908,0.597-2.372,1.244v5.855
					h-1.244v-8.012h1.244v1.161c0.564-0.663,1.658-1.36,2.853-1.36c1.675,0,2.555,0.846,2.555,2.588v5.623H213.099z"/>
				<path style="fill:#A5B7C6;" d="M215.952,472.002c0-2.322,1.659-4.197,3.948-4.197c2.422,0,3.848,1.891,3.848,4.296v0.316h-6.486
					c0.099,1.509,1.161,2.77,2.886,2.77c0.912,0,1.841-0.365,2.472-1.012l0.597,0.813c-0.796,0.796-1.874,1.227-3.185,1.227
					C217.66,476.215,215.952,474.507,215.952,472.002z M219.883,468.834c-1.708,0-2.555,1.443-2.621,2.67h5.258
					C222.503,470.31,221.707,468.834,219.883,468.834z"/>
				<path style="fill:#A5B7C6;" d="M231.146,476.016v-1.194c-0.597,0.813-1.576,1.393-2.704,1.393c-2.09,0-3.566-1.592-3.566-4.196
					c0-2.555,1.46-4.213,3.566-4.213c1.078,0,2.057,0.531,2.704,1.41v-4.263h1.244v11.064H231.146z M231.146,473.843v-3.633
					c-0.448-0.697-1.41-1.294-2.405-1.294c-1.609,0-2.571,1.327-2.571,3.102c0,1.775,0.962,3.085,2.571,3.085
					C229.736,475.104,230.697,474.54,231.146,473.843z"/>
				<path style="fill:#A5B7C6;" d="M238.327,476.016v-11.064h1.244v4.263c0.647-0.879,1.609-1.41,2.704-1.41
					c2.09,0,3.566,1.659,3.566,4.213c0,2.604-1.476,4.196-3.566,4.196c-1.128,0-2.107-0.581-2.704-1.393v1.194H238.327z
					 M241.96,475.104c1.626,0,2.588-1.31,2.588-3.085c0-1.775-0.962-3.102-2.588-3.102c-0.979,0-1.957,0.597-2.388,1.294v3.633
					C240.003,474.54,240.981,475.104,241.96,475.104z"/>
				<path style="fill:#A5B7C6;" d="M247.201,478.023c0.182,0.083,0.481,0.133,0.68,0.133c0.547,0,0.912-0.182,1.194-0.846
					l0.531-1.211l-3.351-8.095h1.344l2.671,6.569l2.654-6.569h1.36l-4.014,9.637c-0.481,1.161-1.294,1.609-2.356,1.625
					c-0.265,0-0.68-0.05-0.912-0.116L247.201,478.023z"/>
			</g>
		</g>
	</g>
</g>
</svg>
